<svg xmlns="http://www.w3.org/2000/svg" viewBox="0 0 32 32">
  <rect width="32" height="32" rx="6" fill="#1a6b4a"/>
  <path d="M6 7.5C6 6.7 6.7 6 7.5 6H15C15.6 6 16 6.4 16 7V24.5C15.5 24 14.8 23.5 14 23.5H7.5C6.7 23.5 6 22.8 6 22V7.5Z" fill="white"/>
  <path d="M16 7C16 6.4 16.4 6 17 6H24.5C25.3 6 26 6.7 26 7.5V22C26 22.8 25.3 23.5 24.5 23.5H18C17.2 23.5 16.5 24 16 24.5V7Z" fill="white"/>
  <line x1="8.5" y1="10" x2="13.5" y2="10" stroke="#1a6b4a" stroke-width="0.8" opacity="0.35"/>
  <line x1="8.5" y1="13" x2="13.5" y2="13" stroke="#1a6b4a" stroke-width="0.8" opacity="0.35"/>
  <line x1="8.5" y1="16" x2="13.5" y2="16" stroke="#1a6b4a" stroke-width="0.8" opacity="0.35"/>
  <line x1="8.5" y1="19" x2="11.5" y2="19" stroke="#1a6b4a" stroke-width="0.8" opacity="0.35"/>
  <line x1="18.5" y1="10" x2="23.5" y2="10" stroke="#1a6b4a" stroke-width="0.8" opacity="0.35"/>
  <line x1="18.5" y1="13" x2="23.5" y2="13" stroke="#1a6b4a" stroke-width="0.8" opacity="0.35"/>
  <line x1="18.5" y1="16" x2="23.5" y2="16" stroke="#1a6b4a" stroke-width="0.8" opacity="0.35"/>
  <line x1="18.5" y1="19" x2="21.5" y2="19" stroke="#1a6b4a" stroke-width="0.8" opacity="0.35"/>
</svg>
