<?xml version="1.0" encoding="UTF-8" standalone="no"?>
<svg
   viewBox="0 0 32 32"
   width="32"
   height="32"
   version="1.1"
   id="svg2"
   sodipodi:docname="favicon.svg"
   xml:space="preserve"
   inkscape:version="1.4.2 (f4327f4, 2025-05-13)"
   xmlns:inkscape="http://www.inkscape.org/namespaces/inkscape"
   xmlns:sodipodi="http://sodipodi.sourceforge.net/DTD/sodipodi-0.dtd"
   xmlns="http://www.w3.org/2000/svg"
   xmlns:svg="http://www.w3.org/2000/svg"><defs
     id="defs2" /><sodipodi:namedview
     id="namedview2"
     pagecolor="#505050"
     bordercolor="#eeeeee"
     borderopacity="1"
     inkscape:showpageshadow="0"
     inkscape:pageopacity="0"
     inkscape:pagecheckerboard="0"
     inkscape:deskcolor="#505050"
     inkscape:zoom="2.135131"
     inkscape:cx="-0.93671066"
     inkscape:cy="38.17096"
     inkscape:window-width="1920"
     inkscape:window-height="991"
     inkscape:window-x="-9"
     inkscape:window-y="-9"
     inkscape:window-maximized="1"
     inkscape:current-layer="svg2" /><rect
     width="32"
     height="32"
     rx="6"
     fill="#5b21b6"
     id="rect1"
     style="fill:#3b016a;fill-opacity:1" /><path
     style="fill:#fafafb;stroke-width:1.78647"
     d="m 20.116984,26.028203 c -1.153152,-0.388512 -1.649833,-0.455181 -3.601183,-0.483386 -1.94864,-0.02817 -2.363425,-0.08625 -3.630916,-0.508499 C 10.183434,24.136373 7.9584443,22.153133 6.8411683,19.649259 5.8169101,17.353853 5.6836556,14.858666 6.4603144,12.517885 7.8418754,8.3539882 11.823209,5.6138402 16.270124,5.7662962 c 1.466677,0.05029 2.570721,0.288617 3.768883,0.813603 5.269439,2.3088529 7.496588,8.4143668 4.936451,13.5328078 -0.50116,1.001963 -1.544179,2.376241 -1.803468,2.376241 -0.131912,0 -1.725661,-0.609135 -2.256077,-0.862277 -0.239478,-0.114299 -0.398856,-0.228801 -0.398856,-0.286568 0,-0.05291 0.134289,-0.252307 0.298403,-0.443091 1.023535,-1.189817 1.670617,-2.511233 1.95507,-3.992481 0.136397,-0.710279 0.135753,-2.065493 -0.0013,-2.845496 C 22.431576,12.138336 21.356244,10.357561 19.848973,9.2230991 17.97744,7.8144712 15.690425,7.5336312 13.561934,8.4510632 11.409127,9.3789771 9.726394,11.588548 9.270219,14.086448 c -0.152618,0.8357 -0.13261,2.229239 0.0433,3.015597 0.705886,3.15554 3.090934,5.59346 5.964488,6.096708 0.913656,0.160014 1.849318,0.08252 2.961713,-0.245298 0.287747,-0.0848 0.556057,-0.154762 0.596245,-0.155459 0.0402,-7.11e-4 0.445355,0.163623 0.900367,0.365196 0.999138,0.442614 2.076274,0.818794 2.650737,0.925748 0.263406,0.04904 0.653264,0.06621 1.030959,0.04539 0.334054,-0.0184 0.607371,-0.0134 0.607371,0.01125 0,0.02458 -0.408535,0.446273 -0.907859,0.937097 -1.066862,1.048702 -1.256756,1.162679 -1.927476,1.15688 -0.349258,-0.003 -0.60328,-0.05304 -1.073075,-0.211325 z m -5.032817,-7.851331 c -0.161426,-0.100471 -0.507635,-0.25522 -0.769372,-0.343879 -0.594841,-0.20149 -1.615483,-0.255572 -2.433824,-0.128965 l -0.542292,0.08389 0.0499,-0.711592 c 0.06301,-0.898714 0.06422,-2.844444 0.0025,-3.996367 l -0.04739,-0.884332 0.4013,0.02555 0.4013,0.02555 v -0.333043 -0.333043 l 0.292362,0.04209 c 0.413074,0.05947 1.540614,0.320162 1.836951,0.424717 0.401025,0.141488 0.845068,0.385117 0.994966,0.545898 l 0.139112,0.149206 -0.01608,2.808487 -0.01608,2.808488 z m 0.939758,-2.624454 v -2.826854 l 0.169268,-0.158782 c 0.36024,-0.337921 1.049585,-0.587971 2.333172,-0.846321 0.860882,-0.17327 0.821255,-0.182052 0.821255,0.18192 v 0.307748 h 0.386327 0.386328 l -0.04343,0.477009 c -0.06762,0.742707 -0.05931,3.189276 0.01411,4.179287 0.0365,0.491732 0.05727,0.901725 0.04616,0.911096 -0.01108,0.0093 -0.269487,-0.02233 -0.574158,-0.07044 -0.82635,-0.13052 -1.838791,-0.0761 -2.462603,0.13236 -0.270482,0.09038 -0.554105,0.204089 -0.630273,0.252681 -0.07617,0.04859 -0.207731,0.133074 -0.292361,0.187755 l -0.153869,0.0994 z"
     id="path11" /></svg>
